<svg width="42" height="42" viewBox="0 0 42 42" fill="none" xmlns="http://www.w3.org/2000/svg">
<g filter="url(#filter0_d_843_833)">
<g clip-path="url(#clip0_843_833)">
<rect x="2" y="2" width="38" height="38" rx="19" fill="#25A53B" fill-opacity="0.06" shape-rendering="crispEdges"/>
<path d="M21 43.1671C30.1609 43.1671 37.5873 42.3129 37.5873 41.2591C37.5873 40.2053 30.1609 39.3511 21 39.3511C11.8391 39.3511 4.41272 40.2053 4.41272 41.2591C4.41272 42.3129 11.8391 43.1671 21 43.1671Z" fill="#E5E5E5" fill-opacity="0.48"/>
<path d="M15.2221 19.8367C15.0839 19.1501 14.4237 18.5115 13.5169 18.7072C12.6113 18.904 12.6079 19.7394 12.7462 20.4261C12.7539 20.4611 13.1996 22.3177 13.4616 22.7081C13.7237 23.0995 14.103 23.8419 14.7411 23.6298C15.1624 23.4899 15.4112 22.7474 15.5107 22.2116C15.6102 21.6759 15.2232 19.8356 15.2232 19.8356L15.2221 19.8367Z" fill="#F9BB8D"/>
<path d="M26.7592 19.8079C26.8974 19.1212 27.5576 18.4827 28.4644 18.6784C29.3711 18.8741 29.4596 19.7347 29.3225 20.4213C29.3147 20.4574 28.8326 22.1752 28.607 22.7044C28.4212 23.1396 27.9148 23.9072 27.2568 23.6382C26.8455 23.4709 26.5712 22.7186 26.4717 22.1828C26.3722 21.6471 26.7592 19.8068 26.7592 19.8068V19.8079Z" fill="#F9BB8D"/>
<path d="M6.89417 40.8304H35.013C35.013 40.8304 34.4589 34.0064 33.5367 32.9829C32.6133 31.9605 25.5847 29.6742 25.5847 29.6742L16.3976 29.6479C16.3976 29.6479 9.00186 31.7878 8.4965 32.9829C7.99114 34.178 6.89527 40.8304 6.89527 40.8304H6.89417Z" fill="#25A53B"/>
<g style="mix-blend-mode:multiply">
<path d="M20.0689 29.6588L16.3965 29.6489C16.3965 29.6489 9.00075 31.7888 8.49539 32.9839C7.99003 34.179 6.89417 40.8314 6.89417 40.8314H10.6031C10.6031 40.8314 11.699 34.179 12.2043 32.9839C12.6898 31.8358 19.537 29.814 20.0689 29.6588Z" fill="#C5D2DB"/>
</g>
<path d="M17.3906 29.2016C17.3906 29.2016 19.7073 31.079 21.0056 31.079C22.3038 31.079 24.6194 29.2016 24.6194 29.2016C24.6194 29.2016 23.6396 28.0732 24.3153 26.5916C24.9909 25.11 16.7813 25.2313 17.7356 26.5916C18.69 27.9518 17.3895 29.2016 17.3895 29.2016H17.3906Z" fill="#D99870"/>
<g style="mix-blend-mode:multiply">
<path d="M19.7969 30.7411C19.9694 30.272 20.3166 29.8008 20.8729 29.4006C21.4291 28.9993 21.7575 29.3601 24.1096 28.025C24.0454 27.6183 24.0709 27.1284 24.3164 26.5916C24.992 25.11 16.7824 25.2313 17.7367 26.5916C18.6911 27.9518 17.3906 29.2016 17.3906 29.2016C17.3906 29.2016 18.6247 30.1999 19.7969 30.7411Z" fill="#E5D7D8"/>
</g>
<g style="mix-blend-mode:multiply">
<path d="M16.934 29.0684L16.3976 29.6479C16.3976 29.6479 17.9978 33.5569 19.3878 34.0522C19.8124 34.2031 20.696 32.2666 21.0045 32.2666C21.1527 32.2666 22.347 34.3212 22.5283 34.2807C23.9515 33.9593 25.5848 29.6752 25.5848 29.6752L24.9832 29.2236L21.0045 31.6991L16.934 29.0684Z" fill="#C5D2DB"/>
</g>
<path d="M27.6439 14.6724C27.6439 11.6939 25.7773 8.70557 20.8376 8.70557C15.8979 8.70557 14.1032 11.976 14.1032 14.9545C14.1032 15.1109 14.0877 23.2099 15.0475 25.0698C16.0063 26.9286 18.647 28.8268 21.0057 28.8356C23.5845 28.8454 25.9023 27.2075 26.9849 25.0698C28.0675 22.9311 27.6439 14.6724 27.6439 14.6724Z" fill="#F9BB8D"/>
<g style="mix-blend-mode:multiply">
<path d="M16.0039 15.3427C16.0459 15.3722 16.0846 15.3984 16.1344 15.4345C16.2693 15.5603 15.5915 17.0561 15.7883 17.0626C16.7669 17.266 17.9413 15.1699 18.8979 15.464C20.5809 15.9823 23.748 20.1778 26.8553 20.0958C27.6714 19.3173 27.6449 14.6724 27.6449 14.6724C27.6449 11.6939 25.7783 8.70557 20.8386 8.70557C16.7448 8.70557 14.8163 10.9515 14.2733 13.415C15.0374 13.7375 15.6777 14.3619 16.005 15.3427H16.0039Z" fill="#F0E8E4"/>
</g>
<g style="mix-blend-mode:multiply">
<path d="M22.9396 26.7043C20.5809 26.6955 17.9413 24.7973 16.9814 22.9374C16.0227 21.0775 16.0371 12.9785 16.0371 12.8221C16.0371 11.7866 16.2604 10.7184 16.7503 9.7627C14.866 10.9666 14.1019 13.0189 14.1019 14.9532C14.1019 15.1096 14.0864 23.2086 15.0463 25.0685C16.005 26.9273 18.6457 28.8255 21.0044 28.8343C23.4427 28.8441 25.6455 27.3789 26.7945 25.4129C25.6964 26.2133 24.3573 26.7086 22.9396 26.7032V26.7043Z" fill="#F0E8E4"/>
</g>
<g style="mix-blend-mode:multiply">
<path d="M26.7624 25.4633C26.7724 25.4458 26.7857 25.4316 26.7956 25.4141C26.7403 25.4545 26.6817 25.4895 26.6253 25.5289C26.6717 25.5081 26.716 25.4851 26.7613 25.4633H26.7624Z" fill="#F0E8E4"/>
</g>
<g style="mix-blend-mode:multiply">
<path d="M22.1248 28.2068C19.7672 28.198 17.1254 26.2998 16.1666 24.4399C15.2079 22.58 15.2223 14.482 15.2223 14.3246C15.2223 12.9895 15.5982 11.6063 16.442 10.4768C16.5304 10.233 16.6322 9.99353 16.7516 9.76172C14.8673 10.9656 14.1032 13.0179 14.1032 14.9522C14.1032 15.1086 14.0877 23.2076 15.0475 25.0675C16.0063 26.9264 18.647 28.8245 21.0057 28.8333C22.3437 28.8388 23.6022 28.3904 24.6626 27.6688C23.8742 28.0121 23.0161 28.2089 22.1248 28.2057V28.2068Z" fill="#F0E8E4"/>
</g>
<path d="M28.7496 13.9617C28.1414 10.6836 25.4333 8.30542 21.0056 8.33275C16.59 8.36009 13.6884 11.0357 13.1089 14.0711C12.8601 15.3711 12.6677 17.8423 12.7705 19.3151C13.5181 18.7072 13.8266 18.6285 14.1882 18.7706C14.4359 21.4484 15.0253 21.4091 15.0253 21.4091C15.0253 21.4091 15.0795 19.5907 15.2 18.3879C15.3206 17.1862 17.3099 16.9676 18.3052 14.89C21.4556 14.7545 23.445 18.7444 26.8996 18.9631C26.5579 20.9378 27.3143 21.7229 27.3143 21.7229C27.3143 21.7229 27.3939 20.0915 27.6737 19.3184C27.917 18.6449 28.6413 18.6449 28.9995 18.9368C29.1709 17.71 29.088 15.7746 28.7518 13.9628L28.7496 13.9617Z" fill="#1E4540"/>
<g style="mix-blend-mode:soft-light" opacity="0.5">
<path d="M28.7497 13.9617C28.1415 10.6836 25.4333 8.30542 21.0056 8.33275C17.1308 8.35681 14.4216 10.4212 13.4252 12.9787C14.6671 10.8761 17.1574 9.29606 20.5423 9.27529C24.97 9.24795 27.6781 11.6251 28.2863 14.9043C28.5329 16.2361 28.6424 17.6335 28.6159 18.7684C28.7596 18.7947 28.8945 18.8515 28.9985 18.9357C29.1699 17.7089 29.087 15.7735 28.7508 13.9617H28.7497Z" fill="white"/>
</g>
<g style="mix-blend-mode:multiply">
<path d="M18.3041 13.3319C17.3089 15.4105 14.1031 17.3688 12.7706 17.757C12.7662 17.6892 12.765 17.6104 12.7617 17.5394C12.7374 18.1889 12.7363 18.811 12.7706 19.3151C13.5181 18.7072 13.8266 18.6284 14.1882 18.7706C14.4359 21.4484 15.0253 21.409 15.0253 21.409C15.0253 21.409 15.0795 19.5906 15.2001 18.3879C15.3206 17.1862 17.31 16.9675 18.3052 14.89C21.4424 14.7544 23.4296 18.7072 26.8565 18.9565C24.3286 18.0894 21.4557 13.1963 18.3052 13.3319H18.3041Z" fill="#AFAAA8"/>
</g>
<path d="M16.934 28.1401L16.3976 29.6491C16.3976 29.6491 17.9978 32.6287 19.3878 33.124C19.8124 33.2749 20.696 31.3384 21.0045 31.3384C21.1527 31.3384 22.347 33.393 22.5283 33.3525C23.9515 33.031 25.5848 29.6753 25.5848 29.6753L24.9832 28.2954L21.0045 30.7709L16.934 28.1401Z" fill="white"/>
</g>
</g>
<defs>
<filter id="filter0_d_843_833" x="0.8125" y="0.8125" width="40.375" height="40.375" filterUnits="userSpaceOnUse" color-interpolation-filters="sRGB">
<feFlood flood-opacity="0" result="BackgroundImageFix"/>
<feColorMatrix in="SourceAlpha" type="matrix" values="0 0 0 0 0 0 0 0 0 0 0 0 0 0 0 0 0 0 127 0" result="hardAlpha"/>
<feMorphology radius="0.395833" operator="dilate" in="SourceAlpha" result="effect1_dropShadow_843_833"/>
<feOffset/>
<feGaussianBlur stdDeviation="0.395833"/>
<feComposite in2="hardAlpha" operator="out"/>
<feColorMatrix type="matrix" values="0 0 0 0 0 0 0 0 0 0 0 0 0 0 0 0 0 0 0.1 0"/>
<feBlend mode="normal" in2="BackgroundImageFix" result="effect1_dropShadow_843_833"/>
<feBlend mode="normal" in="SourceGraphic" in2="effect1_dropShadow_843_833" result="shape"/>
</filter>
<clipPath id="clip0_843_833">
<rect x="2" y="2" width="38" height="38" rx="19" fill="white"/>
</clipPath>
</defs>
</svg>
